<svg xmlns="http://www.w3.org/2000/svg" viewBox="0 0 500 400" enable-background="new 0 0 500 400"><path fill="#fff" d="M250 349.2c-2.5 0-5.1-.3-7.5-1l-161.5-42.3c-8.4-2.2-15.4-8-19.2-15.8l-36.2-74.9c-3.9-8.1-4-17.5-.1-25.7l35.8-75c3.6-7.6 10.4-13.4 18.5-15.7l162-46.8c5.4-1.5 11.1-1.5 16.5 0l161.9 46.8c8.1 2.4 14.9 8.1 18.5 15.7l35.8 75c3.9 8.2 3.9 17.5-.1 25.7l-36.2 74.9c-3.8 7.8-10.8 13.6-19.2 15.8l-161.4 42.3c-2.5.6-5.1 1-7.6 1zm0-293.2c-2.3 0-4.6.3-6.8 1l-161.9 46.8c-6.7 1.9-12.3 6.7-15.3 13l-35.8 75c-3.2 6.7-3.2 14.5.1 21.2l36.2 74.9c3.1 6.5 8.9 11.2 15.8 13l161.4 42.3c4.1 1.1 8.4 1.1 12.4 0l161.4-42.3c6.9-1.8 12.7-6.6 15.8-13l36.2-74.9c3.3-6.7 3.3-14.5.1-21.2l-35.8-75c-3-6.3-8.6-11-15.3-13l-161.7-46.8c-2.2-.7-4.5-1-6.8-1z"/><path fill="#fff" d="M250 338.6c-1.6 0-3.3-.2-4.8-.6l-161.5-42.3c-5.4-1.4-9.9-5.1-12.3-10.1l-36.2-74.9c-2.5-5.2-2.6-11.3 0-16.5l35.8-75c2.3-4.9 6.7-8.6 11.9-10.1l161.9-46.8c3.4-1 7.2-1 10.6 0l161.8 46.7c5.2 1.5 9.6 5.2 11.9 10.1l35.8 75c2.5 5.3 2.5 11.3 0 16.5l-36.2 74.9c-2.4 5-6.9 8.7-12.3 10.1l-161.6 42.4c-1.5.4-3.2.6-4.8.6zm0-274.6c-1.6 0-3.1.2-4.6.6l-161.8 46.8c-4.5 1.3-8.3 4.5-10.3 8.7l-35.8 75c-2.2 4.5-2.2 9.8 0 14.3l36.2 74.9c2.1 4.4 6 7.6 10.7 8.8l161.4 42.3c2.7.7 5.6.7 8.4 0l161.4-42.3c4.7-1.2 8.6-4.4 10.7-8.8l36.2-74.9c2.2-4.5 2.2-9.7 0-14.3l-35.8-75c-2-4.2-5.8-7.4-10.3-8.7l-161.8-46.8c-1.5-.4-3-.6-4.6-.6z"/><path fill="#fff" d="M216.5 126.5h-114.5c-.4 0-.8-.3-.8-.8 0-.4.3-.8.8-.8h114.5c.4 0 .8.3.8.8 0 .4-.4.8-.8.8z"/><path fill="#fff" d="M216.5 119.7h-94.3c-.4 0-.8-.3-.8-.8s.3-.8.8-.8h94.3c.4 0 .8.3.8.8s-.4.8-.8.8z"/><path fill="#fff" d="M216.5 113h-79.9c-.4 0-.8-.3-.8-.8s.3-.8.8-.8h79.9c.4 0 .8.3.8.8s-.4.8-.8.8z"/><path fill="#fff" d="M400.5 126.5h-114.4c-.4 0-.8-.3-.8-.8 0-.4.3-.8.8-.8h114.5c.4 0 .8.3.8.8-.1.4-.4.8-.9.8z"/><path fill="#fff" d="M380.4 119.7h-94.3c-.4 0-.8-.3-.8-.8s.3-.8.8-.8h94.3c.4 0 .8.3.8.8s-.3.8-.8.8z"/><path fill="#fff" d="M366 113h-79.9c-.4 0-.8-.3-.8-.8s.3-.8.8-.8h79.9c.4 0 .8.3.8.8s-.4.8-.8.8z"/><path fill="#fff" d="M400.5 276h-298.5c-.4 0-.8.3-.8.8s.3.8.8.8h298.6c.4 0 .8-.3.8-.8s-.4-.8-.9-.8z"/><path fill="#fff" d="M380.4 283.1h-258.3c-.4 0-.8.3-.8.8s.3.8.8.8h258.3c.4 0 .8-.3.8-.8s-.3-.8-.8-.8z"/><path fill="#fff" d="M366 290.2h-229.4c-.4 0-.8.3-.8.8s.3.8.8.8h229.39999999999998c.4 0 .8-.3.8-.8s-.4-.8-.8-.8z"/><text transform="translate(67.032 222.616)" fill="#fff" font-family="'Sullivan-Bevel'" font-size="92.166">SMELLYCAST</text><text transform="translate(119.153 258.356)" fill="#fff" font-family="'WisdomScriptAI'" font-size="25.652">“So bad it’s kinda good.”</text><g fill="#fff"><polygon points="253.7,100.5 251,109.1 268.5,120.9 271.2,112.3"/><polygon points="268.2,122 250.7,110.2 248.4,117.9 265.9,129.7"/><path d="M271.5 111.2l1.7-5.7c.7-2.2-.6-4.6-2.8-5.3l-11.2-3.4c-2.1-.7-4.4.5-5.2 2.6l17.5 11.8zM236.9 122.9c-.7.1-1.3.3-1.9.5-2.4 1-4 2.6-5 4.3l21.5 14.5 5.7 1.7c2.2.7 4.6-.6 5.3-2.8l.2-.8-25.8-17.4zM229.4 128.6c-1.5 3.1-1.4 6.2-1.4 6.2l17.8 5.7h.1l2.1.6-18.6-12.5zM263 139.3l2.6-8.5-17.6-11.8-1.3 4.3c-2.9-.5-5.8-.8-8.3-.6l24.6 16.6z"/></g><path opacity=".5" fill-rule="evenodd" clip-rule="evenodd" fill="#fff" d="M234.2 96.2c1 1.5.9 3.1 0 4.6-1.1 1.8-.8 3.3.1 5 .8 1.4 1.4 3.1 1.7 4.7.2 1.2-.3 2.6-.9 3.6-.7 1.1-.7 1.9 0 3 .3.4.2 1 .3 1.5-.6-.1-1.2 0-1.6-.3-1.2-.9-1.6-3.4-.4-4.5 2-1.9 1.3-4 .6-6.1l-1-2.3c-.7-1.5-.7-3 .3-4.5.8-1.5 1.5-2.9.9-4.7z"/><path opacity=".5" fill-rule="evenodd" clip-rule="evenodd" fill="#fff" d="M252 72.7c1 1.5.9 3.1 0 4.6-1.1 1.8-.8 3.3.1 5 .8 1.4 1.4 3.1 1.7 4.7.2 1.2-.3 2.6-.9 3.6-.7 1.1-.7 1.9 0 3 .3.4.2 1 .3 1.5-.6-.1-1.2 0-1.6-.3-1.2-.9-1.6-3.4-.4-4.5 2-1.9 1.3-4 .6-6.1l-1-2.3c-.7-1.5-.7-3 .3-4.5.8-1.5 1.5-2.9.9-4.7z"/><path opacity=".5" fill-rule="evenodd" clip-rule="evenodd" fill="#fff" d="M245.4 92.9c.7 1.3 1 3.2.4 4.9-1.1 2.9-.6 5.5.9 8 1.3 2.2 1 4.8-.7 6.5-.3.3-.8.3-1.2.4 0-.4-.3-1-.1-1.2 1.5-2.2 1.2-4.2 0-6.4-1.2-2.3-1.2-4.7-.2-7.2.7-1.6.7-3.4.9-5z"/><path opacity=".5" fill-rule="evenodd" clip-rule="evenodd" fill="#fff" d="M259.7 75c.7 1.3 1 3.2.4 4.9-1.1 2.9-.6 5.5.9 8 1.3 2.2 1 4.8-.7 6.5-.3.3-.8.3-1.2.4 0-.4-.3-1-.1-1.2 1.5-2.2 1.2-4.2 0-6.4-1.2-2.3-1.2-4.7-.2-7.2.7-1.6.6-3.5.9-5z"/><path opacity=".5" fill-rule="evenodd" clip-rule="evenodd" fill="#fff" d="M238.6 86.5c.7 1 1.4 1.9 2 2.9 1.6 2.3 1.7 4.4.2 6.8-.5.9-.9 1.9-1.2 2.8-.3.8-.2 1.7.8 2 .2.1.4.5.6.7-.3.2-.7.5-1 .5-1.2 0-1.9-.9-1.8-1.9.2-1.5.4-3.2 1.2-4.4 1.5-2.4 1.6-4.5.2-6.9-.5-.8-.8-1.7-1.2-2.6 0 .2.1.2.2.1z"/><path opacity=".5" fill-rule="evenodd" clip-rule="evenodd" fill="#fff" d="M265.9 80.7c.7 1 1.4 1.9 2 2.9 1.6 2.3 1.7 4.4.2 6.8-.5.9-.9 1.9-1.2 2.8-.3.8-.2 1.7.8 2 .2.1.4.5.6.7-.3.2-.7.5-1 .5-1.2 0-1.9-.9-1.8-1.9.2-1.5.4-3.2 1.2-4.4 1.5-2.4 1.6-4.5.2-6.9-.5-.8-.8-1.7-1.2-2.6 0 .2.1.2.2.1z"/></svg>